M48
; DRILL file {KiCad 9.0.3-9.0.3-0~ubuntu22.04.1} date 2026-03-02T18:58:30+0100
; FORMAT={-:-/ absolute / inch / decimal}
; #@! TF.CreationDate,2026-03-02T18:58:30+01:00
; #@! TF.GenerationSoftware,Kicad,Pcbnew,9.0.3-9.0.3-0~ubuntu22.04.1
; #@! TF.FileFunction,MixedPlating,1,2
FMAT,2
INCH
; #@! TA.AperFunction,Plated,PTH,ViaDrill
T1C0.0118
; #@! TA.AperFunction,Plated,PTH,ComponentDrill
T2C0.0394
; #@! TA.AperFunction,Plated,PTH,ComponentDrill
T3C0.0709
; #@! TA.AperFunction,NonPlated,NPTH,ComponentDrill
T4C0.0984
%
G90
G05
T1
X4.7047Y-3.4882
X4.7047Y-3.5236
X4.7283Y-3.9291
X4.7656Y-3.7686
X4.7795Y-3.9291
X4.9094Y-4.1772
X5.0157Y-3.3661
X5.063Y-3.5315
X5.1364Y-3.4055
X5.1864Y-3.3268
X5.189Y-3.4055
X5.2756Y-3.5709
X5.3701Y-3.2598
X5.374Y-3.4803
X5.5039Y-3.9803
X5.5197Y-3.6063
X5.5748Y-3.7323
X5.5748Y-3.7795
X5.5787Y-3.9331
X5.5787Y-3.9803
T2
X4.625Y-3.7236
X4.625Y-3.8236
X4.625Y-3.9236
X4.625Y-4.0236
X4.8799Y-3.6693
X4.8799Y-3.7677
X4.8799Y-3.8661
T4
X4.7933Y-3.3169
X5.4823Y-4.2421
T3
X5.1496Y-3.5945G85X5.1614Y-3.5945
G05
X5.1496Y-3.9409G85X5.1614Y-3.9409
G05
M30
