%TF.GenerationSoftware,KiCad,Pcbnew,9.0.3-9.0.3-0~ubuntu22.04.1*%
%TF.CreationDate,2026-02-28T13:26:55+01:00*%
%TF.ProjectId,Type73_Encoder_Emulator,54797065-3733-45f4-956e-636f6465725f,rev?*%
%TF.SameCoordinates,Original*%
%TF.FileFunction,Soldermask,Top*%
%TF.FilePolarity,Negative*%
%FSLAX45Y45*%
G04 Gerber Fmt 4.5, Leading zero omitted, Abs format (unit mm)*
G04 Created by KiCad (PCBNEW 9.0.3-9.0.3-0~ubuntu22.04.1) date 2026-02-28 13:26:55*
%MOMM*%
%LPD*%
G01*
G04 APERTURE LIST*
G04 Aperture macros list*
%AMRoundRect*
0 Rectangle with rounded corners*
0 $1 Rounding radius*
0 $2 $3 $4 $5 $6 $7 $8 $9 X,Y pos of 4 corners*
0 Add a 4 corners polygon primitive as box body*
4,1,4,$2,$3,$4,$5,$6,$7,$8,$9,$2,$3,0*
0 Add four circle primitives for the rounded corners*
1,1,$1+$1,$2,$3*
1,1,$1+$1,$4,$5*
1,1,$1+$1,$6,$7*
1,1,$1+$1,$8,$9*
0 Add four rect primitives between the rounded corners*
20,1,$1+$1,$2,$3,$4,$5,0*
20,1,$1+$1,$4,$5,$6,$7,0*
20,1,$1+$1,$6,$7,$8,$9,0*
20,1,$1+$1,$8,$9,$2,$3,0*%
G04 Aperture macros list end*
%ADD10RoundRect,0.250000X-0.325000X-0.650000X0.325000X-0.650000X0.325000X0.650000X-0.325000X0.650000X0*%
%ADD11RoundRect,0.250000X-0.450000X0.262500X-0.450000X-0.262500X0.450000X-0.262500X0.450000X0.262500X0*%
%ADD12C,2.500000*%
%ADD13RoundRect,0.250000X-0.250000X-0.475000X0.250000X-0.475000X0.250000X0.475000X-0.250000X0.475000X0*%
%ADD14RoundRect,0.150000X0.150000X-0.825000X0.150000X0.825000X-0.150000X0.825000X-0.150000X-0.825000X0*%
%ADD15RoundRect,0.250000X0.262500X0.450000X-0.262500X0.450000X-0.262500X-0.450000X0.262500X-0.450000X0*%
%ADD16RoundRect,0.250000X0.600000X-0.400000X0.600000X0.400000X-0.600000X0.400000X-0.600000X-0.400000X0*%
%ADD17RoundRect,0.250000X-0.475000X0.250000X-0.475000X-0.250000X0.475000X-0.250000X0.475000X0.250000X0*%
%ADD18RoundRect,0.150000X-0.587500X-0.150000X0.587500X-0.150000X0.587500X0.150000X-0.587500X0.150000X0*%
%ADD19RoundRect,0.150000X-0.150000X0.825000X-0.150000X-0.825000X0.150000X-0.825000X0.150000X0.825000X0*%
%ADD20RoundRect,0.150000X0.587500X0.150000X-0.587500X0.150000X-0.587500X-0.150000X0.587500X-0.150000X0*%
%ADD21RoundRect,0.250000X0.450000X-0.262500X0.450000X0.262500X-0.450000X0.262500X-0.450000X-0.262500X0*%
%ADD22RoundRect,0.250000X-0.400000X-0.600000X0.400000X-0.600000X0.400000X0.600000X-0.400000X0.600000X0*%
%ADD23R,1.800000X1.800000*%
%ADD24C,1.800000*%
%ADD25RoundRect,0.750000X-1.250000X-0.750000X1.250000X-0.750000X1.250000X0.750000X-1.250000X0.750000X0*%
%ADD26RoundRect,0.250000X0.475000X-0.250000X0.475000X0.250000X-0.475000X0.250000X-0.475000X-0.250000X0*%
%ADD27RoundRect,0.250000X0.400000X0.600000X-0.400000X0.600000X-0.400000X-0.600000X0.400000X-0.600000X0*%
%ADD28R,1.700000X1.700000*%
%ADD29C,1.700000*%
G04 APERTURE END LIST*
D10*
%TO.C,C1*%
X13052500Y-10550000D03*
X13347500Y-10550000D03*
%TD*%
D11*
%TO.C,R2*%
X12900000Y-8698750D03*
X12900000Y-8881250D03*
%TD*%
D12*
%TO.C,H2*%
X12175000Y-8425000D03*
%TD*%
D11*
%TO.C,R5*%
X11775000Y-10133750D03*
X11775000Y-10316250D03*
%TD*%
D13*
%TO.C,C5*%
X12695000Y-9370000D03*
X12885000Y-9370000D03*
%TD*%
D12*
%TO.C,H1*%
X13925000Y-10775000D03*
%TD*%
D14*
%TO.C,U1*%
X13084500Y-8827500D03*
X13211500Y-8827500D03*
X13338500Y-8827500D03*
X13465500Y-8827500D03*
X13465500Y-8332500D03*
X13338500Y-8332500D03*
X13211500Y-8332500D03*
X13084500Y-8332500D03*
%TD*%
D15*
%TO.C,R1*%
X13232500Y-10325000D03*
X13050000Y-10325000D03*
%TD*%
D16*
%TO.C,D3*%
X12875000Y-9950000D03*
X12875000Y-9600000D03*
%TD*%
D17*
%TO.C,C2*%
X12900000Y-8285000D03*
X12900000Y-8475000D03*
%TD*%
D18*
%TO.C,Q2*%
X12006250Y-10130000D03*
X12006250Y-10320000D03*
X12193750Y-10225000D03*
%TD*%
D19*
%TO.C,U2*%
X12506000Y-8877500D03*
X12379000Y-8877500D03*
X12252000Y-8877500D03*
X12125000Y-8877500D03*
X11998000Y-8877500D03*
X11871000Y-8877500D03*
X11744000Y-8877500D03*
X11744000Y-9372500D03*
X11871000Y-9372500D03*
X11998000Y-9372500D03*
X12125000Y-9372500D03*
X12252000Y-9372500D03*
X12379000Y-9372500D03*
X12506000Y-9372500D03*
%TD*%
D20*
%TO.C,Q1*%
X12793750Y-10320000D03*
X12793750Y-10130000D03*
X12606250Y-10225000D03*
%TD*%
D16*
%TO.C,D2*%
X12400000Y-9950000D03*
X12400000Y-9600000D03*
%TD*%
D21*
%TO.C,R3*%
X12650000Y-9941250D03*
X12650000Y-9758750D03*
%TD*%
D22*
%TO.C,D4*%
X11775000Y-9900000D03*
X12125000Y-9900000D03*
%TD*%
D23*
%TO.C,RV1*%
X13170000Y-9400000D03*
D24*
X13170000Y-9650000D03*
X13170000Y-9900000D03*
D25*
X13870000Y-9210000D03*
X13870000Y-10090000D03*
%TD*%
D26*
%TO.C,C4*%
X13675000Y-8870000D03*
X13675000Y-8680000D03*
%TD*%
D27*
%TO.C,D5*%
X12125000Y-9650000D03*
X11775000Y-9650000D03*
%TD*%
%TO.C,D1*%
X12800000Y-10550000D03*
X12450000Y-10550000D03*
%TD*%
D28*
%TO.C,J1*%
X13305000Y-10852500D03*
D29*
X13051000Y-10852500D03*
X12797000Y-10852500D03*
X12543000Y-10852500D03*
%TD*%
D17*
%TO.C,C3*%
X13675000Y-8305000D03*
X13675000Y-8495000D03*
%TD*%
D21*
%TO.C,R4*%
X12400000Y-10316250D03*
X12400000Y-10133750D03*
%TD*%
M02*
