%TF.GenerationSoftware,KiCad,Pcbnew,9.0.3-9.0.3-0~ubuntu22.04.1*%
%TF.CreationDate,2026-03-02T18:58:30+01:00*%
%TF.ProjectId,Type73_Encoder_Emulator,54797065-3733-45f4-956e-636f6465725f,rev?*%
%TF.SameCoordinates,Original*%
%TF.FileFunction,Legend,Bot*%
%TF.FilePolarity,Positive*%
%FSLAX45Y45*%
G04 Gerber Fmt 4.5, Leading zero omitted, Abs format (unit mm)*
G04 Created by KiCad (PCBNEW 9.0.3-9.0.3-0~ubuntu22.04.1) date 2026-03-02 18:58:30*
%MOMM*%
%LPD*%
G01*
G04 APERTURE LIST*
%ADD10C,0.150000*%
%ADD11C,0.120000*%
G04 APERTURE END LIST*
D10*
X13155482Y-9520476D02*
X13107863Y-9487143D01*
X13155482Y-9463333D02*
X13055482Y-9463333D01*
X13055482Y-9463333D02*
X13055482Y-9501429D01*
X13055482Y-9501429D02*
X13060244Y-9510952D01*
X13060244Y-9510952D02*
X13065006Y-9515714D01*
X13065006Y-9515714D02*
X13074529Y-9520476D01*
X13074529Y-9520476D02*
X13088815Y-9520476D01*
X13088815Y-9520476D02*
X13098339Y-9515714D01*
X13098339Y-9515714D02*
X13103101Y-9510952D01*
X13103101Y-9510952D02*
X13107863Y-9501429D01*
X13107863Y-9501429D02*
X13107863Y-9463333D01*
X13055482Y-9549048D02*
X13155482Y-9582381D01*
X13155482Y-9582381D02*
X13055482Y-9615714D01*
X13155482Y-9701429D02*
X13155482Y-9644286D01*
X13155482Y-9672857D02*
X13055482Y-9672857D01*
X13055482Y-9672857D02*
X13069768Y-9663333D01*
X13069768Y-9663333D02*
X13079291Y-9653810D01*
X13079291Y-9653810D02*
X13084053Y-9644286D01*
D11*
%TO.C,RV1*%
X12483000Y-9068000D02*
X12876700Y-9068000D01*
X12483000Y-9233000D02*
X12483000Y-9068000D01*
X12483000Y-9482900D02*
X12483000Y-9407000D01*
X12483000Y-9695000D02*
X12483000Y-9657000D01*
X12483000Y-10072100D02*
X12483000Y-9940000D01*
X12483000Y-10072100D02*
X12876700Y-10072100D01*
X13313400Y-9068000D02*
X13707000Y-9068000D01*
X13313400Y-10072100D02*
X13707000Y-10072100D01*
X13707000Y-10072100D02*
X13707000Y-9068000D01*
%TD*%
M02*
