%TF.GenerationSoftware,KiCad,Pcbnew,9.0.3-9.0.3-0~ubuntu22.04.1*%
%TF.CreationDate,2026-02-28T13:26:55+01:00*%
%TF.ProjectId,Type73_Encoder_Emulator,54797065-3733-45f4-956e-636f6465725f,rev?*%
%TF.SameCoordinates,Original*%
%TF.FileFunction,Legend,Top*%
%TF.FilePolarity,Positive*%
%FSLAX45Y45*%
G04 Gerber Fmt 4.5, Leading zero omitted, Abs format (unit mm)*
G04 Created by KiCad (PCBNEW 9.0.3-9.0.3-0~ubuntu22.04.1) date 2026-02-28 13:26:55*
%MOMM*%
%LPD*%
G01*
G04 APERTURE LIST*
%ADD10C,0.150000*%
%ADD11C,0.120000*%
G04 APERTURE END LIST*
D10*
X13183333Y-10400958D02*
X13178571Y-10405720D01*
X13178571Y-10405720D02*
X13164286Y-10410482D01*
X13164286Y-10410482D02*
X13154762Y-10410482D01*
X13154762Y-10410482D02*
X13140476Y-10405720D01*
X13140476Y-10405720D02*
X13130952Y-10396196D01*
X13130952Y-10396196D02*
X13126190Y-10386672D01*
X13126190Y-10386672D02*
X13121429Y-10367625D01*
X13121429Y-10367625D02*
X13121429Y-10353339D01*
X13121429Y-10353339D02*
X13126190Y-10334291D01*
X13126190Y-10334291D02*
X13130952Y-10324768D01*
X13130952Y-10324768D02*
X13140476Y-10315244D01*
X13140476Y-10315244D02*
X13154762Y-10310482D01*
X13154762Y-10310482D02*
X13164286Y-10310482D01*
X13164286Y-10310482D02*
X13178571Y-10315244D01*
X13178571Y-10315244D02*
X13183333Y-10320006D01*
X13278571Y-10410482D02*
X13221429Y-10410482D01*
X13250000Y-10410482D02*
X13250000Y-10310482D01*
X13250000Y-10310482D02*
X13240476Y-10324768D01*
X13240476Y-10324768D02*
X13230952Y-10334291D01*
X13230952Y-10334291D02*
X13221429Y-10339053D01*
X13110482Y-8806667D02*
X13062863Y-8840000D01*
X13110482Y-8863809D02*
X13010482Y-8863809D01*
X13010482Y-8863809D02*
X13010482Y-8825714D01*
X13010482Y-8825714D02*
X13015244Y-8816190D01*
X13015244Y-8816190D02*
X13020006Y-8811429D01*
X13020006Y-8811429D02*
X13029529Y-8806667D01*
X13029529Y-8806667D02*
X13043815Y-8806667D01*
X13043815Y-8806667D02*
X13053339Y-8811429D01*
X13053339Y-8811429D02*
X13058101Y-8816190D01*
X13058101Y-8816190D02*
X13062863Y-8825714D01*
X13062863Y-8825714D02*
X13062863Y-8863809D01*
X13020006Y-8768571D02*
X13015244Y-8763809D01*
X13015244Y-8763809D02*
X13010482Y-8754286D01*
X13010482Y-8754286D02*
X13010482Y-8730476D01*
X13010482Y-8730476D02*
X13015244Y-8720952D01*
X13015244Y-8720952D02*
X13020006Y-8716190D01*
X13020006Y-8716190D02*
X13029529Y-8711429D01*
X13029529Y-8711429D02*
X13039053Y-8711429D01*
X13039053Y-8711429D02*
X13053339Y-8716190D01*
X13053339Y-8716190D02*
X13110482Y-8773333D01*
X13110482Y-8773333D02*
X13110482Y-8711429D01*
X12098809Y-8125482D02*
X12098809Y-8025482D01*
X12098809Y-8073101D02*
X12155952Y-8073101D01*
X12155952Y-8125482D02*
X12155952Y-8025482D01*
X12198809Y-8035006D02*
X12203571Y-8030244D01*
X12203571Y-8030244D02*
X12213095Y-8025482D01*
X12213095Y-8025482D02*
X12236905Y-8025482D01*
X12236905Y-8025482D02*
X12246428Y-8030244D01*
X12246428Y-8030244D02*
X12251190Y-8035006D01*
X12251190Y-8035006D02*
X12255952Y-8044529D01*
X12255952Y-8044529D02*
X12255952Y-8054053D01*
X12255952Y-8054053D02*
X12251190Y-8068339D01*
X12251190Y-8068339D02*
X12194048Y-8125482D01*
X12194048Y-8125482D02*
X12255952Y-8125482D01*
X11985482Y-10241667D02*
X11937863Y-10275000D01*
X11985482Y-10298809D02*
X11885482Y-10298809D01*
X11885482Y-10298809D02*
X11885482Y-10260714D01*
X11885482Y-10260714D02*
X11890244Y-10251190D01*
X11890244Y-10251190D02*
X11895006Y-10246429D01*
X11895006Y-10246429D02*
X11904529Y-10241667D01*
X11904529Y-10241667D02*
X11918815Y-10241667D01*
X11918815Y-10241667D02*
X11928339Y-10246429D01*
X11928339Y-10246429D02*
X11933101Y-10251190D01*
X11933101Y-10251190D02*
X11937863Y-10260714D01*
X11937863Y-10260714D02*
X11937863Y-10298809D01*
X11885482Y-10151190D02*
X11885482Y-10198809D01*
X11885482Y-10198809D02*
X11933101Y-10203571D01*
X11933101Y-10203571D02*
X11928339Y-10198809D01*
X11928339Y-10198809D02*
X11923577Y-10189286D01*
X11923577Y-10189286D02*
X11923577Y-10165476D01*
X11923577Y-10165476D02*
X11928339Y-10155952D01*
X11928339Y-10155952D02*
X11933101Y-10151190D01*
X11933101Y-10151190D02*
X11942625Y-10146429D01*
X11942625Y-10146429D02*
X11966434Y-10146429D01*
X11966434Y-10146429D02*
X11975958Y-10151190D01*
X11975958Y-10151190D02*
X11980720Y-10155952D01*
X11980720Y-10155952D02*
X11985482Y-10165476D01*
X11985482Y-10165476D02*
X11985482Y-10189286D01*
X11985482Y-10189286D02*
X11980720Y-10198809D01*
X11980720Y-10198809D02*
X11975958Y-10203571D01*
X12773333Y-9237958D02*
X12768571Y-9242720D01*
X12768571Y-9242720D02*
X12754286Y-9247482D01*
X12754286Y-9247482D02*
X12744762Y-9247482D01*
X12744762Y-9247482D02*
X12730476Y-9242720D01*
X12730476Y-9242720D02*
X12720952Y-9233196D01*
X12720952Y-9233196D02*
X12716190Y-9223672D01*
X12716190Y-9223672D02*
X12711429Y-9204625D01*
X12711429Y-9204625D02*
X12711429Y-9190339D01*
X12711429Y-9190339D02*
X12716190Y-9171291D01*
X12716190Y-9171291D02*
X12720952Y-9161768D01*
X12720952Y-9161768D02*
X12730476Y-9152244D01*
X12730476Y-9152244D02*
X12744762Y-9147482D01*
X12744762Y-9147482D02*
X12754286Y-9147482D01*
X12754286Y-9147482D02*
X12768571Y-9152244D01*
X12768571Y-9152244D02*
X12773333Y-9157006D01*
X12863809Y-9147482D02*
X12816190Y-9147482D01*
X12816190Y-9147482D02*
X12811429Y-9195101D01*
X12811429Y-9195101D02*
X12816190Y-9190339D01*
X12816190Y-9190339D02*
X12825714Y-9185577D01*
X12825714Y-9185577D02*
X12849524Y-9185577D01*
X12849524Y-9185577D02*
X12859048Y-9190339D01*
X12859048Y-9190339D02*
X12863809Y-9195101D01*
X12863809Y-9195101D02*
X12868571Y-9204625D01*
X12868571Y-9204625D02*
X12868571Y-9228434D01*
X12868571Y-9228434D02*
X12863809Y-9237958D01*
X12863809Y-9237958D02*
X12859048Y-9242720D01*
X12859048Y-9242720D02*
X12849524Y-9247482D01*
X12849524Y-9247482D02*
X12825714Y-9247482D01*
X12825714Y-9247482D02*
X12816190Y-9242720D01*
X12816190Y-9242720D02*
X12811429Y-9237958D01*
X13848809Y-10475482D02*
X13848809Y-10375482D01*
X13848809Y-10423101D02*
X13905952Y-10423101D01*
X13905952Y-10475482D02*
X13905952Y-10375482D01*
X14005952Y-10475482D02*
X13948809Y-10475482D01*
X13977381Y-10475482D02*
X13977381Y-10375482D01*
X13977381Y-10375482D02*
X13967857Y-10389768D01*
X13967857Y-10389768D02*
X13958333Y-10399291D01*
X13958333Y-10399291D02*
X13948809Y-10404053D01*
X12880482Y-8656190D02*
X12961434Y-8656190D01*
X12961434Y-8656190D02*
X12970958Y-8651429D01*
X12970958Y-8651429D02*
X12975720Y-8646667D01*
X12975720Y-8646667D02*
X12980482Y-8637143D01*
X12980482Y-8637143D02*
X12980482Y-8618095D01*
X12980482Y-8618095D02*
X12975720Y-8608571D01*
X12975720Y-8608571D02*
X12970958Y-8603810D01*
X12970958Y-8603810D02*
X12961434Y-8599048D01*
X12961434Y-8599048D02*
X12880482Y-8599048D01*
X12980482Y-8499048D02*
X12980482Y-8556190D01*
X12980482Y-8527619D02*
X12880482Y-8527619D01*
X12880482Y-8527619D02*
X12894768Y-8537143D01*
X12894768Y-8537143D02*
X12904291Y-8546667D01*
X12904291Y-8546667D02*
X12909053Y-8556190D01*
X13124583Y-10535482D02*
X13091250Y-10487863D01*
X13067440Y-10535482D02*
X13067440Y-10435482D01*
X13067440Y-10435482D02*
X13105536Y-10435482D01*
X13105536Y-10435482D02*
X13115059Y-10440244D01*
X13115059Y-10440244D02*
X13119821Y-10445006D01*
X13119821Y-10445006D02*
X13124583Y-10454530D01*
X13124583Y-10454530D02*
X13124583Y-10468815D01*
X13124583Y-10468815D02*
X13119821Y-10478339D01*
X13119821Y-10478339D02*
X13115059Y-10483101D01*
X13115059Y-10483101D02*
X13105536Y-10487863D01*
X13105536Y-10487863D02*
X13067440Y-10487863D01*
X13219821Y-10535482D02*
X13162679Y-10535482D01*
X13191250Y-10535482D02*
X13191250Y-10435482D01*
X13191250Y-10435482D02*
X13181726Y-10449768D01*
X13181726Y-10449768D02*
X13172202Y-10459291D01*
X13172202Y-10459291D02*
X13162679Y-10464053D01*
X12720482Y-9848809D02*
X12620482Y-9848809D01*
X12620482Y-9848809D02*
X12620482Y-9825000D01*
X12620482Y-9825000D02*
X12625244Y-9810714D01*
X12625244Y-9810714D02*
X12634768Y-9801190D01*
X12634768Y-9801190D02*
X12644291Y-9796429D01*
X12644291Y-9796429D02*
X12663339Y-9791667D01*
X12663339Y-9791667D02*
X12677625Y-9791667D01*
X12677625Y-9791667D02*
X12696672Y-9796429D01*
X12696672Y-9796429D02*
X12706196Y-9801190D01*
X12706196Y-9801190D02*
X12715720Y-9810714D01*
X12715720Y-9810714D02*
X12720482Y-9825000D01*
X12720482Y-9825000D02*
X12720482Y-9848809D01*
X12620482Y-9758333D02*
X12620482Y-9696429D01*
X12620482Y-9696429D02*
X12658577Y-9729762D01*
X12658577Y-9729762D02*
X12658577Y-9715476D01*
X12658577Y-9715476D02*
X12663339Y-9705952D01*
X12663339Y-9705952D02*
X12668101Y-9701190D01*
X12668101Y-9701190D02*
X12677625Y-9696429D01*
X12677625Y-9696429D02*
X12701434Y-9696429D01*
X12701434Y-9696429D02*
X12710958Y-9701190D01*
X12710958Y-9701190D02*
X12715720Y-9705952D01*
X12715720Y-9705952D02*
X12720482Y-9715476D01*
X12720482Y-9715476D02*
X12720482Y-9744048D01*
X12720482Y-9744048D02*
X12715720Y-9753571D01*
X12715720Y-9753571D02*
X12710958Y-9758333D01*
X13103958Y-8396667D02*
X13108720Y-8401429D01*
X13108720Y-8401429D02*
X13113482Y-8415714D01*
X13113482Y-8415714D02*
X13113482Y-8425238D01*
X13113482Y-8425238D02*
X13108720Y-8439524D01*
X13108720Y-8439524D02*
X13099196Y-8449048D01*
X13099196Y-8449048D02*
X13089672Y-8453809D01*
X13089672Y-8453809D02*
X13070625Y-8458571D01*
X13070625Y-8458571D02*
X13056339Y-8458571D01*
X13056339Y-8458571D02*
X13037291Y-8453809D01*
X13037291Y-8453809D02*
X13027768Y-8449048D01*
X13027768Y-8449048D02*
X13018244Y-8439524D01*
X13018244Y-8439524D02*
X13013482Y-8425238D01*
X13013482Y-8425238D02*
X13013482Y-8415714D01*
X13013482Y-8415714D02*
X13018244Y-8401429D01*
X13018244Y-8401429D02*
X13023006Y-8396667D01*
X13023006Y-8358571D02*
X13018244Y-8353809D01*
X13018244Y-8353809D02*
X13013482Y-8344286D01*
X13013482Y-8344286D02*
X13013482Y-8320476D01*
X13013482Y-8320476D02*
X13018244Y-8310952D01*
X13018244Y-8310952D02*
X13023006Y-8306190D01*
X13023006Y-8306190D02*
X13032529Y-8301428D01*
X13032529Y-8301428D02*
X13042053Y-8301428D01*
X13042053Y-8301428D02*
X13056339Y-8306190D01*
X13056339Y-8306190D02*
X13113482Y-8363333D01*
X13113482Y-8363333D02*
X13113482Y-8301428D01*
X12090476Y-10040006D02*
X12080952Y-10035244D01*
X12080952Y-10035244D02*
X12071428Y-10025720D01*
X12071428Y-10025720D02*
X12057143Y-10011434D01*
X12057143Y-10011434D02*
X12047619Y-10006672D01*
X12047619Y-10006672D02*
X12038095Y-10006672D01*
X12042857Y-10030482D02*
X12033333Y-10025720D01*
X12033333Y-10025720D02*
X12023809Y-10016196D01*
X12023809Y-10016196D02*
X12019048Y-9997149D01*
X12019048Y-9997149D02*
X12019048Y-9963815D01*
X12019048Y-9963815D02*
X12023809Y-9944768D01*
X12023809Y-9944768D02*
X12033333Y-9935244D01*
X12033333Y-9935244D02*
X12042857Y-9930482D01*
X12042857Y-9930482D02*
X12061905Y-9930482D01*
X12061905Y-9930482D02*
X12071428Y-9935244D01*
X12071428Y-9935244D02*
X12080952Y-9944768D01*
X12080952Y-9944768D02*
X12085714Y-9963815D01*
X12085714Y-9963815D02*
X12085714Y-9997149D01*
X12085714Y-9997149D02*
X12080952Y-10016196D01*
X12080952Y-10016196D02*
X12071428Y-10025720D01*
X12071428Y-10025720D02*
X12061905Y-10030482D01*
X12061905Y-10030482D02*
X12042857Y-10030482D01*
X12123809Y-9940006D02*
X12128571Y-9935244D01*
X12128571Y-9935244D02*
X12138095Y-9930482D01*
X12138095Y-9930482D02*
X12161905Y-9930482D01*
X12161905Y-9930482D02*
X12171428Y-9935244D01*
X12171428Y-9935244D02*
X12176190Y-9940006D01*
X12176190Y-9940006D02*
X12180952Y-9949530D01*
X12180952Y-9949530D02*
X12180952Y-9959053D01*
X12180952Y-9959053D02*
X12176190Y-9973339D01*
X12176190Y-9973339D02*
X12119048Y-10030482D01*
X12119048Y-10030482D02*
X12180952Y-10030482D01*
X12598482Y-9201190D02*
X12679434Y-9201190D01*
X12679434Y-9201190D02*
X12688958Y-9196429D01*
X12688958Y-9196429D02*
X12693720Y-9191667D01*
X12693720Y-9191667D02*
X12698482Y-9182143D01*
X12698482Y-9182143D02*
X12698482Y-9163095D01*
X12698482Y-9163095D02*
X12693720Y-9153571D01*
X12693720Y-9153571D02*
X12688958Y-9148810D01*
X12688958Y-9148810D02*
X12679434Y-9144048D01*
X12679434Y-9144048D02*
X12598482Y-9144048D01*
X12608006Y-9101190D02*
X12603244Y-9096429D01*
X12603244Y-9096429D02*
X12598482Y-9086905D01*
X12598482Y-9086905D02*
X12598482Y-9063095D01*
X12598482Y-9063095D02*
X12603244Y-9053571D01*
X12603244Y-9053571D02*
X12608006Y-9048810D01*
X12608006Y-9048810D02*
X12617529Y-9044048D01*
X12617529Y-9044048D02*
X12627053Y-9044048D01*
X12627053Y-9044048D02*
X12641339Y-9048810D01*
X12641339Y-9048810D02*
X12698482Y-9105952D01*
X12698482Y-9105952D02*
X12698482Y-9044048D01*
X12690476Y-10520006D02*
X12680952Y-10515244D01*
X12680952Y-10515244D02*
X12671428Y-10505720D01*
X12671428Y-10505720D02*
X12657143Y-10491434D01*
X12657143Y-10491434D02*
X12647619Y-10486672D01*
X12647619Y-10486672D02*
X12638095Y-10486672D01*
X12642857Y-10510482D02*
X12633333Y-10505720D01*
X12633333Y-10505720D02*
X12623809Y-10496196D01*
X12623809Y-10496196D02*
X12619048Y-10477149D01*
X12619048Y-10477149D02*
X12619048Y-10443815D01*
X12619048Y-10443815D02*
X12623809Y-10424768D01*
X12623809Y-10424768D02*
X12633333Y-10415244D01*
X12633333Y-10415244D02*
X12642857Y-10410482D01*
X12642857Y-10410482D02*
X12661905Y-10410482D01*
X12661905Y-10410482D02*
X12671428Y-10415244D01*
X12671428Y-10415244D02*
X12680952Y-10424768D01*
X12680952Y-10424768D02*
X12685714Y-10443815D01*
X12685714Y-10443815D02*
X12685714Y-10477149D01*
X12685714Y-10477149D02*
X12680952Y-10496196D01*
X12680952Y-10496196D02*
X12671428Y-10505720D01*
X12671428Y-10505720D02*
X12661905Y-10510482D01*
X12661905Y-10510482D02*
X12642857Y-10510482D01*
X12780952Y-10510482D02*
X12723809Y-10510482D01*
X12752381Y-10510482D02*
X12752381Y-10410482D01*
X12752381Y-10410482D02*
X12742857Y-10424768D01*
X12742857Y-10424768D02*
X12733333Y-10434291D01*
X12733333Y-10434291D02*
X12723809Y-10439053D01*
X12245482Y-9848809D02*
X12145482Y-9848809D01*
X12145482Y-9848809D02*
X12145482Y-9825000D01*
X12145482Y-9825000D02*
X12150244Y-9810714D01*
X12150244Y-9810714D02*
X12159768Y-9801190D01*
X12159768Y-9801190D02*
X12169291Y-9796429D01*
X12169291Y-9796429D02*
X12188339Y-9791667D01*
X12188339Y-9791667D02*
X12202625Y-9791667D01*
X12202625Y-9791667D02*
X12221672Y-9796429D01*
X12221672Y-9796429D02*
X12231196Y-9801190D01*
X12231196Y-9801190D02*
X12240720Y-9810714D01*
X12240720Y-9810714D02*
X12245482Y-9825000D01*
X12245482Y-9825000D02*
X12245482Y-9848809D01*
X12155006Y-9753571D02*
X12150244Y-9748809D01*
X12150244Y-9748809D02*
X12145482Y-9739286D01*
X12145482Y-9739286D02*
X12145482Y-9715476D01*
X12145482Y-9715476D02*
X12150244Y-9705952D01*
X12150244Y-9705952D02*
X12155006Y-9701190D01*
X12155006Y-9701190D02*
X12164529Y-9696429D01*
X12164529Y-9696429D02*
X12174053Y-9696429D01*
X12174053Y-9696429D02*
X12188339Y-9701190D01*
X12188339Y-9701190D02*
X12245482Y-9758333D01*
X12245482Y-9758333D02*
X12245482Y-9696429D01*
X12530482Y-9866667D02*
X12482863Y-9900000D01*
X12530482Y-9923809D02*
X12430482Y-9923809D01*
X12430482Y-9923809D02*
X12430482Y-9885714D01*
X12430482Y-9885714D02*
X12435244Y-9876190D01*
X12435244Y-9876190D02*
X12440006Y-9871429D01*
X12440006Y-9871429D02*
X12449529Y-9866667D01*
X12449529Y-9866667D02*
X12463815Y-9866667D01*
X12463815Y-9866667D02*
X12473339Y-9871429D01*
X12473339Y-9871429D02*
X12478101Y-9876190D01*
X12478101Y-9876190D02*
X12482863Y-9885714D01*
X12482863Y-9885714D02*
X12482863Y-9923809D01*
X12430482Y-9833333D02*
X12430482Y-9771429D01*
X12430482Y-9771429D02*
X12468577Y-9804762D01*
X12468577Y-9804762D02*
X12468577Y-9790476D01*
X12468577Y-9790476D02*
X12473339Y-9780952D01*
X12473339Y-9780952D02*
X12478101Y-9776190D01*
X12478101Y-9776190D02*
X12487625Y-9771429D01*
X12487625Y-9771429D02*
X12511434Y-9771429D01*
X12511434Y-9771429D02*
X12520958Y-9776190D01*
X12520958Y-9776190D02*
X12525720Y-9780952D01*
X12525720Y-9780952D02*
X12530482Y-9790476D01*
X12530482Y-9790476D02*
X12530482Y-9819048D01*
X12530482Y-9819048D02*
X12525720Y-9828571D01*
X12525720Y-9828571D02*
X12520958Y-9833333D01*
X11876190Y-9745482D02*
X11876190Y-9645482D01*
X11876190Y-9645482D02*
X11900000Y-9645482D01*
X11900000Y-9645482D02*
X11914286Y-9650244D01*
X11914286Y-9650244D02*
X11923809Y-9659768D01*
X11923809Y-9659768D02*
X11928571Y-9669291D01*
X11928571Y-9669291D02*
X11933333Y-9688339D01*
X11933333Y-9688339D02*
X11933333Y-9702625D01*
X11933333Y-9702625D02*
X11928571Y-9721672D01*
X11928571Y-9721672D02*
X11923809Y-9731196D01*
X11923809Y-9731196D02*
X11914286Y-9740720D01*
X11914286Y-9740720D02*
X11900000Y-9745482D01*
X11900000Y-9745482D02*
X11876190Y-9745482D01*
X12019048Y-9678815D02*
X12019048Y-9745482D01*
X11995238Y-9640720D02*
X11971429Y-9712149D01*
X11971429Y-9712149D02*
X12033333Y-9712149D01*
X13715476Y-8930482D02*
X13682143Y-8882863D01*
X13658333Y-8930482D02*
X13658333Y-8830482D01*
X13658333Y-8830482D02*
X13696428Y-8830482D01*
X13696428Y-8830482D02*
X13705952Y-8835244D01*
X13705952Y-8835244D02*
X13710714Y-8840006D01*
X13710714Y-8840006D02*
X13715476Y-8849530D01*
X13715476Y-8849530D02*
X13715476Y-8863815D01*
X13715476Y-8863815D02*
X13710714Y-8873339D01*
X13710714Y-8873339D02*
X13705952Y-8878101D01*
X13705952Y-8878101D02*
X13696428Y-8882863D01*
X13696428Y-8882863D02*
X13658333Y-8882863D01*
X13744048Y-8830482D02*
X13777381Y-8930482D01*
X13777381Y-8930482D02*
X13810714Y-8830482D01*
X13896428Y-8930482D02*
X13839286Y-8930482D01*
X13867857Y-8930482D02*
X13867857Y-8830482D01*
X13867857Y-8830482D02*
X13858333Y-8844768D01*
X13858333Y-8844768D02*
X13848809Y-8854291D01*
X13848809Y-8854291D02*
X13839286Y-8859053D01*
X13542958Y-8791667D02*
X13547720Y-8796429D01*
X13547720Y-8796429D02*
X13552482Y-8810714D01*
X13552482Y-8810714D02*
X13552482Y-8820238D01*
X13552482Y-8820238D02*
X13547720Y-8834524D01*
X13547720Y-8834524D02*
X13538196Y-8844048D01*
X13538196Y-8844048D02*
X13528672Y-8848809D01*
X13528672Y-8848809D02*
X13509625Y-8853571D01*
X13509625Y-8853571D02*
X13495339Y-8853571D01*
X13495339Y-8853571D02*
X13476291Y-8848809D01*
X13476291Y-8848809D02*
X13466768Y-8844048D01*
X13466768Y-8844048D02*
X13457244Y-8834524D01*
X13457244Y-8834524D02*
X13452482Y-8820238D01*
X13452482Y-8820238D02*
X13452482Y-8810714D01*
X13452482Y-8810714D02*
X13457244Y-8796429D01*
X13457244Y-8796429D02*
X13462006Y-8791667D01*
X13485815Y-8705952D02*
X13552482Y-8705952D01*
X13447720Y-8729762D02*
X13519148Y-8753571D01*
X13519148Y-8753571D02*
X13519148Y-8691667D01*
X11876190Y-9895482D02*
X11876190Y-9795482D01*
X11876190Y-9795482D02*
X11900000Y-9795482D01*
X11900000Y-9795482D02*
X11914286Y-9800244D01*
X11914286Y-9800244D02*
X11923809Y-9809768D01*
X11923809Y-9809768D02*
X11928571Y-9819291D01*
X11928571Y-9819291D02*
X11933333Y-9838339D01*
X11933333Y-9838339D02*
X11933333Y-9852625D01*
X11933333Y-9852625D02*
X11928571Y-9871672D01*
X11928571Y-9871672D02*
X11923809Y-9881196D01*
X11923809Y-9881196D02*
X11914286Y-9890720D01*
X11914286Y-9890720D02*
X11900000Y-9895482D01*
X11900000Y-9895482D02*
X11876190Y-9895482D01*
X12023809Y-9795482D02*
X11976190Y-9795482D01*
X11976190Y-9795482D02*
X11971429Y-9843101D01*
X11971429Y-9843101D02*
X11976190Y-9838339D01*
X11976190Y-9838339D02*
X11985714Y-9833577D01*
X11985714Y-9833577D02*
X12009524Y-9833577D01*
X12009524Y-9833577D02*
X12019048Y-9838339D01*
X12019048Y-9838339D02*
X12023809Y-9843101D01*
X12023809Y-9843101D02*
X12028571Y-9852625D01*
X12028571Y-9852625D02*
X12028571Y-9876434D01*
X12028571Y-9876434D02*
X12023809Y-9885958D01*
X12023809Y-9885958D02*
X12019048Y-9890720D01*
X12019048Y-9890720D02*
X12009524Y-9895482D01*
X12009524Y-9895482D02*
X11985714Y-9895482D01*
X11985714Y-9895482D02*
X11976190Y-9890720D01*
X11976190Y-9890720D02*
X11971429Y-9885958D01*
X12551190Y-10795482D02*
X12551190Y-10695482D01*
X12551190Y-10695482D02*
X12575000Y-10695482D01*
X12575000Y-10695482D02*
X12589286Y-10700244D01*
X12589286Y-10700244D02*
X12598809Y-10709768D01*
X12598809Y-10709768D02*
X12603571Y-10719291D01*
X12603571Y-10719291D02*
X12608333Y-10738339D01*
X12608333Y-10738339D02*
X12608333Y-10752625D01*
X12608333Y-10752625D02*
X12603571Y-10771672D01*
X12603571Y-10771672D02*
X12598809Y-10781196D01*
X12598809Y-10781196D02*
X12589286Y-10790720D01*
X12589286Y-10790720D02*
X12575000Y-10795482D01*
X12575000Y-10795482D02*
X12551190Y-10795482D01*
X12703571Y-10795482D02*
X12646429Y-10795482D01*
X12675000Y-10795482D02*
X12675000Y-10695482D01*
X12675000Y-10695482D02*
X12665476Y-10709768D01*
X12665476Y-10709768D02*
X12655952Y-10719291D01*
X12655952Y-10719291D02*
X12646429Y-10724053D01*
X13527482Y-10885833D02*
X13598910Y-10885833D01*
X13598910Y-10885833D02*
X13613196Y-10890595D01*
X13613196Y-10890595D02*
X13622720Y-10900119D01*
X13622720Y-10900119D02*
X13627482Y-10914405D01*
X13627482Y-10914405D02*
X13627482Y-10923929D01*
X13627482Y-10785833D02*
X13627482Y-10842976D01*
X13627482Y-10814405D02*
X13527482Y-10814405D01*
X13527482Y-10814405D02*
X13541768Y-10823929D01*
X13541768Y-10823929D02*
X13551291Y-10833452D01*
X13551291Y-10833452D02*
X13556053Y-10842976D01*
X13878958Y-8416667D02*
X13883720Y-8421429D01*
X13883720Y-8421429D02*
X13888482Y-8435714D01*
X13888482Y-8435714D02*
X13888482Y-8445238D01*
X13888482Y-8445238D02*
X13883720Y-8459524D01*
X13883720Y-8459524D02*
X13874196Y-8469048D01*
X13874196Y-8469048D02*
X13864672Y-8473809D01*
X13864672Y-8473809D02*
X13845625Y-8478571D01*
X13845625Y-8478571D02*
X13831339Y-8478571D01*
X13831339Y-8478571D02*
X13812291Y-8473809D01*
X13812291Y-8473809D02*
X13802768Y-8469048D01*
X13802768Y-8469048D02*
X13793244Y-8459524D01*
X13793244Y-8459524D02*
X13788482Y-8445238D01*
X13788482Y-8445238D02*
X13788482Y-8435714D01*
X13788482Y-8435714D02*
X13793244Y-8421429D01*
X13793244Y-8421429D02*
X13798006Y-8416667D01*
X13788482Y-8383333D02*
X13788482Y-8321428D01*
X13788482Y-8321428D02*
X13826577Y-8354762D01*
X13826577Y-8354762D02*
X13826577Y-8340476D01*
X13826577Y-8340476D02*
X13831339Y-8330952D01*
X13831339Y-8330952D02*
X13836101Y-8326190D01*
X13836101Y-8326190D02*
X13845625Y-8321428D01*
X13845625Y-8321428D02*
X13869434Y-8321428D01*
X13869434Y-8321428D02*
X13878958Y-8326190D01*
X13878958Y-8326190D02*
X13883720Y-8330952D01*
X13883720Y-8330952D02*
X13888482Y-8340476D01*
X13888482Y-8340476D02*
X13888482Y-8369047D01*
X13888482Y-8369047D02*
X13883720Y-8378571D01*
X13883720Y-8378571D02*
X13878958Y-8383333D01*
X12280482Y-10241667D02*
X12232863Y-10275000D01*
X12280482Y-10298809D02*
X12180482Y-10298809D01*
X12180482Y-10298809D02*
X12180482Y-10260714D01*
X12180482Y-10260714D02*
X12185244Y-10251190D01*
X12185244Y-10251190D02*
X12190006Y-10246429D01*
X12190006Y-10246429D02*
X12199529Y-10241667D01*
X12199529Y-10241667D02*
X12213815Y-10241667D01*
X12213815Y-10241667D02*
X12223339Y-10246429D01*
X12223339Y-10246429D02*
X12228101Y-10251190D01*
X12228101Y-10251190D02*
X12232863Y-10260714D01*
X12232863Y-10260714D02*
X12232863Y-10298809D01*
X12213815Y-10155952D02*
X12280482Y-10155952D01*
X12175720Y-10179762D02*
X12247148Y-10203571D01*
X12247148Y-10203571D02*
X12247148Y-10141667D01*
D11*
%TO.C,C1*%
X13128875Y-10459000D02*
X13271125Y-10459000D01*
X13128875Y-10641000D02*
X13271125Y-10641000D01*
%TO.C,R2*%
X12826500Y-8767294D02*
X12826500Y-8812706D01*
X12973500Y-8767294D02*
X12973500Y-8812706D01*
%TO.C,R5*%
X11701500Y-10202294D02*
X11701500Y-10247706D01*
X11848500Y-10202294D02*
X11848500Y-10247706D01*
%TO.C,C5*%
X12763875Y-9296500D02*
X12816125Y-9296500D01*
X12763875Y-9443500D02*
X12816125Y-9443500D01*
%TO.C,U1*%
X13019000Y-8580000D02*
X13019000Y-8385000D01*
X13019000Y-8580000D02*
X13019000Y-8775000D01*
X13531000Y-8580000D02*
X13531000Y-8385000D01*
X13531000Y-8580000D02*
X13531000Y-8775000D01*
X13028500Y-8850000D02*
X12995500Y-8874000D01*
X12995500Y-8826000D01*
X13028500Y-8850000D01*
G36*
X13028500Y-8850000D02*
G01*
X12995500Y-8874000D01*
X12995500Y-8826000D01*
X13028500Y-8850000D01*
G37*
%TO.C,R1*%
X13163956Y-10251500D02*
X13118544Y-10251500D01*
X13163956Y-10398500D02*
X13118544Y-10398500D01*
%TO.C,D3*%
X12764000Y-9600000D02*
X12764000Y-10041000D01*
X12764000Y-10041000D02*
X12986000Y-10041000D01*
X12986000Y-10041000D02*
X12986000Y-9600000D01*
%TO.C,C2*%
X12826500Y-8353875D02*
X12826500Y-8406125D01*
X12973500Y-8353875D02*
X12973500Y-8406125D01*
%TO.C,Q2*%
X12100000Y-10069000D02*
X12035000Y-10069000D01*
X12100000Y-10069000D02*
X12165000Y-10069000D01*
X12100000Y-10381000D02*
X12035000Y-10381000D01*
X12100000Y-10381000D02*
X12165000Y-10381000D01*
X11983750Y-10074000D02*
X11959750Y-10041000D01*
X12007750Y-10041000D01*
X11983750Y-10074000D01*
G36*
X11983750Y-10074000D02*
G01*
X11959750Y-10041000D01*
X12007750Y-10041000D01*
X11983750Y-10074000D01*
G37*
%TO.C,U2*%
X11681500Y-9125000D02*
X11681500Y-8930000D01*
X11681500Y-9125000D02*
X11681500Y-9320000D01*
X12568500Y-9125000D02*
X12568500Y-8930000D01*
X12568500Y-9125000D02*
X12568500Y-9320000D01*
X12595000Y-8879000D02*
X12562000Y-8855000D01*
X12595000Y-8831000D01*
X12595000Y-8879000D01*
G36*
X12595000Y-8879000D02*
G01*
X12562000Y-8855000D01*
X12595000Y-8831000D01*
X12595000Y-8879000D01*
G37*
%TO.C,Q1*%
X12700000Y-10069000D02*
X12635000Y-10069000D01*
X12700000Y-10069000D02*
X12765000Y-10069000D01*
X12700000Y-10381000D02*
X12635000Y-10381000D01*
X12700000Y-10381000D02*
X12765000Y-10381000D01*
X12840250Y-10409000D02*
X12792250Y-10409000D01*
X12816250Y-10376000D01*
X12840250Y-10409000D01*
G36*
X12840250Y-10409000D02*
G01*
X12792250Y-10409000D01*
X12816250Y-10376000D01*
X12840250Y-10409000D01*
G37*
%TO.C,D2*%
X12289000Y-9600000D02*
X12289000Y-10041000D01*
X12289000Y-10041000D02*
X12511000Y-10041000D01*
X12511000Y-10041000D02*
X12511000Y-9600000D01*
%TO.C,R3*%
X12576500Y-9872706D02*
X12576500Y-9827294D01*
X12723500Y-9872706D02*
X12723500Y-9827294D01*
%TO.C,D4*%
X11684000Y-9789000D02*
X11684000Y-10011000D01*
X11684000Y-10011000D02*
X12125000Y-10011000D01*
X12125000Y-9789000D02*
X11684000Y-9789000D01*
%TO.C,RV1*%
X13258000Y-9147900D02*
X13258000Y-9280000D01*
X13258000Y-9147900D02*
X13651700Y-9147900D01*
X13258000Y-9525000D02*
X13258000Y-9563000D01*
X13258000Y-9737100D02*
X13258000Y-9813000D01*
X13258000Y-9987000D02*
X13258000Y-10152000D01*
X13258000Y-10152000D02*
X13651700Y-10152000D01*
X14088400Y-9147900D02*
X14482000Y-9147900D01*
X14088400Y-10152000D02*
X14482000Y-10152000D01*
X14482000Y-9147900D02*
X14482000Y-10152000D01*
%TO.C,C4*%
X13601500Y-8801125D02*
X13601500Y-8748875D01*
X13748500Y-8801125D02*
X13748500Y-8748875D01*
%TO.C,D5*%
X11775000Y-9761000D02*
X12216000Y-9761000D01*
X12216000Y-9539000D02*
X11775000Y-9539000D01*
X12216000Y-9761000D02*
X12216000Y-9539000D01*
%TO.C,D1*%
X12450000Y-10661000D02*
X12891000Y-10661000D01*
X12891000Y-10439000D02*
X12450000Y-10439000D01*
X12891000Y-10661000D02*
X12891000Y-10439000D01*
%TO.C,J1*%
X12410000Y-10719500D02*
X12410000Y-10985500D01*
X13178000Y-10719500D02*
X12410000Y-10719500D01*
X13178000Y-10719500D02*
X13178000Y-10985500D01*
X13178000Y-10985500D02*
X12410000Y-10985500D01*
X13438000Y-10852500D02*
X13438000Y-10985500D01*
X13438000Y-10985500D02*
X13305000Y-10985500D01*
%TO.C,C3*%
X13601500Y-8373875D02*
X13601500Y-8426125D01*
X13748500Y-8373875D02*
X13748500Y-8426125D01*
%TO.C,R4*%
X12326500Y-10247706D02*
X12326500Y-10202294D01*
X12473500Y-10247706D02*
X12473500Y-10202294D01*
%TD*%
M02*
