M48
; DRILL file {KiCad 9.0.3-9.0.3-0~ubuntu22.04.1} date 2026-02-28T13:26:55+0100
; FORMAT={-:-/ absolute / inch / decimal}
; #@! TF.CreationDate,2026-02-28T13:26:55+01:00
; #@! TF.GenerationSoftware,Kicad,Pcbnew,9.0.3-9.0.3-0~ubuntu22.04.1
; #@! TF.FileFunction,MixedPlating,1,2
FMAT,2
INCH
; #@! TA.AperFunction,Plated,PTH,ViaDrill
T1C0.0118
; #@! TA.AperFunction,Plated,PTH,ComponentDrill
T2C0.0394
; #@! TA.AperFunction,Plated,PTH,ComponentDrill
T3C0.0709
; #@! TA.AperFunction,NonPlated,NPTH,ComponentDrill
T4C0.0984
%
G90
G05
T1
X4.622Y-3.5591
X4.622Y-3.6299
X4.6732Y-3.6299
X4.6811Y-3.9567
X4.7756Y-3.5551
X4.7756Y-3.8524
X4.7771Y-4.063
X4.8228Y-3.6299
X4.8236Y-3.5543
X4.8243Y-4.063
X4.9331Y-3.7795
X4.9395Y-4.1024
X4.9646Y-3.5787
X4.9813Y-3.8041
X4.9882Y-4.1024
X5.0Y-3.7402
X5.0276Y-3.5787
X5.0748Y-3.6339
X5.0807Y-3.378
X5.0886Y-4.1535
X5.1514Y-3.3329
X5.1535Y-3.5354
X5.2559Y-4.0669
X5.3014Y-3.5315
X5.3031Y-4.1339
X5.3031Y-4.1732
X5.3346Y-3.2717
X5.3858Y-3.5315
T2
X4.9382Y-4.2726
X5.0382Y-4.2726
X5.1382Y-4.2726
X5.185Y-3.7008
X5.185Y-3.7992
X5.185Y-3.8976
X5.2382Y-4.2726
T4
X4.7933Y-3.3169
X5.4823Y-4.2421
T3
X5.4547Y-3.626G85X5.4665Y-3.626
G05
X5.4547Y-3.9724G85X5.4665Y-3.9724
G05
M30
