%TF.GenerationSoftware,KiCad,Pcbnew,9.0.3-9.0.3-0~ubuntu22.04.1*%
%TF.CreationDate,2026-03-02T18:58:30+01:00*%
%TF.ProjectId,Type73_Encoder_Emulator,54797065-3733-45f4-956e-636f6465725f,rev?*%
%TF.SameCoordinates,Original*%
%TF.FileFunction,Copper,L2,Bot*%
%TF.FilePolarity,Positive*%
%FSLAX45Y45*%
G04 Gerber Fmt 4.5, Leading zero omitted, Abs format (unit mm)*
G04 Created by KiCad (PCBNEW 9.0.3-9.0.3-0~ubuntu22.04.1) date 2026-03-02 18:58:30*
%MOMM*%
%LPD*%
G01*
G04 APERTURE LIST*
G04 Aperture macros list*
%AMRoundRect*
0 Rectangle with rounded corners*
0 $1 Rounding radius*
0 $2 $3 $4 $5 $6 $7 $8 $9 X,Y pos of 4 corners*
0 Add a 4 corners polygon primitive as box body*
4,1,4,$2,$3,$4,$5,$6,$7,$8,$9,$2,$3,0*
0 Add four circle primitives for the rounded corners*
1,1,$1+$1,$2,$3*
1,1,$1+$1,$4,$5*
1,1,$1+$1,$6,$7*
1,1,$1+$1,$8,$9*
0 Add four rect primitives between the rounded corners*
20,1,$1+$1,$2,$3,$4,$5,0*
20,1,$1+$1,$4,$5,$6,$7,0*
20,1,$1+$1,$6,$7,$8,$9,0*
20,1,$1+$1,$8,$9,$2,$3,0*%
G04 Aperture macros list end*
%TA.AperFunction,ComponentPad*%
%ADD10R,1.700000X1.700000*%
%TD*%
%TA.AperFunction,ComponentPad*%
%ADD11C,1.700000*%
%TD*%
%TA.AperFunction,ComponentPad*%
%ADD12R,1.800000X1.800000*%
%TD*%
%TA.AperFunction,ComponentPad*%
%ADD13C,1.800000*%
%TD*%
%TA.AperFunction,ComponentPad*%
%ADD14RoundRect,0.750000X-1.250000X-0.750000X1.250000X-0.750000X1.250000X0.750000X-1.250000X0.750000X0*%
%TD*%
%TA.AperFunction,ViaPad*%
%ADD15C,0.600000*%
%TD*%
%TA.AperFunction,Conductor*%
%ADD16C,0.200000*%
%TD*%
G04 APERTURE END LIST*
D10*
%TO.P,J1,1,Pin_1*%
%TO.N,B*%
X11747500Y-10220000D03*
D11*
%TO.P,J1,2,Pin_2*%
%TO.N,GND*%
X11747500Y-9966000D03*
%TO.P,J1,3,Pin_3*%
%TO.N,A*%
X11747500Y-9712000D03*
%TO.P,J1,4,Pin_4*%
%TO.N,VCC*%
X11747500Y-9458000D03*
%TD*%
D12*
%TO.P,RV1,1,1*%
%TO.N,/SIG*%
X12395000Y-9820000D03*
D13*
%TO.P,RV1,2,2*%
%TO.N,Net-(JP1-B)*%
X12395000Y-9570000D03*
%TO.P,RV1,3,3*%
%TO.N,Net-(JP1-A)*%
X12395000Y-9320000D03*
D14*
%TO.P,RV1,MP*%
%TO.N,N/C*%
X13095000Y-9130000D03*
X13095000Y-10010000D03*
%TD*%
D15*
%TO.N,GND*%
X14160000Y-9600000D03*
X11950000Y-8950000D03*
X14170000Y-10110000D03*
X14170000Y-9990000D03*
X14160000Y-9480000D03*
X13980000Y-10110000D03*
X14020000Y-9160000D03*
X11950000Y-8860000D03*
X12860000Y-8970000D03*
X12740000Y-8550000D03*
X13640000Y-8280000D03*
X12470000Y-10610000D03*
X12010000Y-9980000D03*
X13650000Y-8840000D03*
%TO.N,Net-(U1-THR)*%
X13173500Y-8450000D03*
X13046500Y-8650000D03*
%TO.N,Net-(Q1-E)*%
X12104620Y-9572300D03*
X12140000Y-9980000D03*
%TO.N,/SIG*%
X13400000Y-9070000D03*
X13180000Y-8650000D03*
%TD*%
D16*
%TO.N,Net-(U1-THR)*%
X13173500Y-8523000D02*
X13046500Y-8650000D01*
X13173500Y-8450000D02*
X13173500Y-8523000D01*
%TO.N,Net-(Q1-E)*%
X12104620Y-9572300D02*
X12140000Y-9607681D01*
X12140000Y-9607681D02*
X12140000Y-9980000D01*
%TO.N,/SIG*%
X13400000Y-9070000D02*
X13400000Y-8870000D01*
X13400000Y-8870000D02*
X13180000Y-8650000D01*
%TD*%
%TA.AperFunction,Conductor*%
%TO.N,GND*%
G36*
X13819254Y-8202018D02*
G01*
X13823829Y-8207299D01*
X13824950Y-8212450D01*
X13824950Y-8469868D01*
X13824654Y-8471295D01*
X13824950Y-8476437D01*
X13824950Y-8481589D01*
X13824950Y-8481590D01*
X13824998Y-8481770D01*
X13825400Y-8484266D01*
X13826748Y-8507699D01*
X13826747Y-8507699D01*
X13826800Y-8508610D01*
X13826540Y-8511507D01*
X13827177Y-8515159D01*
X13827218Y-8515872D01*
X13827218Y-8515872D01*
X13827389Y-8518860D01*
X13827389Y-8518860D01*
X13828017Y-8520758D01*
X13828459Y-8522521D01*
X13832580Y-8546179D01*
X13832961Y-8548362D01*
X13833036Y-8551275D01*
X13834087Y-8554825D01*
X13834723Y-8558475D01*
X13835565Y-8560292D01*
X13836207Y-8561991D01*
X13843668Y-8587211D01*
X13844079Y-8590099D01*
X13845530Y-8593503D01*
X13846580Y-8597050D01*
X13847628Y-8598762D01*
X13848459Y-8600375D01*
X13858090Y-8622965D01*
X13858517Y-8623967D01*
X13859013Y-8626104D01*
X13861091Y-8630004D01*
X13861302Y-8630498D01*
X13862825Y-8634071D01*
X13862825Y-8634071D01*
X13863507Y-8634941D01*
X13864691Y-8636759D01*
X13867256Y-8641573D01*
X13868210Y-8643910D01*
X13868266Y-8644100D01*
X13868266Y-8644100D01*
X13870756Y-8648184D01*
X13871111Y-8648807D01*
X13873360Y-8653028D01*
X13873495Y-8653172D01*
X13875022Y-8655184D01*
X13877406Y-8659094D01*
X13878493Y-8661372D01*
X13878560Y-8661559D01*
X13878560Y-8661559D01*
X13878560Y-8661560D01*
X13881282Y-8665492D01*
X13881671Y-8666092D01*
X13884161Y-8670176D01*
X13884161Y-8670177D01*
X13884306Y-8670315D01*
X13885945Y-8672233D01*
X13888542Y-8675985D01*
X13889759Y-8678195D01*
X13889837Y-8678380D01*
X13889837Y-8678380D01*
X13892780Y-8682147D01*
X13893205Y-8682725D01*
X13895925Y-8686656D01*
X13896078Y-8686786D01*
X13897826Y-8688606D01*
X13900083Y-8691495D01*
X13901017Y-8692690D01*
X13902261Y-8694630D01*
X13902609Y-8695304D01*
X13905456Y-8698430D01*
X13906060Y-8699145D01*
X13908663Y-8702477D01*
X13909268Y-8702933D01*
X13910973Y-8704486D01*
X13922543Y-8717186D01*
X13922543Y-8717186D01*
X13923203Y-8717911D01*
X13924648Y-8720112D01*
X13927623Y-8722763D01*
X13928058Y-8723241D01*
X13928058Y-8723241D01*
X13928559Y-8723791D01*
X13930305Y-8725708D01*
X13931696Y-8726599D01*
X13933253Y-8727781D01*
X13951390Y-8743945D01*
X13952550Y-8744979D01*
X13954416Y-8747212D01*
X13957449Y-8749345D01*
X13957982Y-8749820D01*
X13957982Y-8749820D01*
X13959522Y-8751193D01*
X13960216Y-8751812D01*
X13962001Y-8752710D01*
X13963560Y-8753643D01*
X13985016Y-8768733D01*
X13987129Y-8770739D01*
X13990384Y-8772508D01*
X13993413Y-8774638D01*
X13995293Y-8775327D01*
X13996949Y-8776075D01*
X14020058Y-8788632D01*
X14022391Y-8790384D01*
X14025822Y-8791764D01*
X14026451Y-8792106D01*
X14026452Y-8792106D01*
X14029074Y-8793531D01*
X14031027Y-8794000D01*
X14032755Y-8794552D01*
X14056548Y-8804122D01*
X14058409Y-8805283D01*
X14062638Y-8806572D01*
X14066739Y-8808221D01*
X14067837Y-8808354D01*
X14069958Y-8808802D01*
X14075177Y-8810393D01*
X14077504Y-8811370D01*
X14077678Y-8811466D01*
X14082675Y-8812678D01*
X14087593Y-8814177D01*
X14089060Y-8814226D01*
X14094744Y-8815605D01*
X14097124Y-8816447D01*
X14097255Y-8816509D01*
X14097303Y-8816532D01*
X14102010Y-8817389D01*
X14102707Y-8817537D01*
X14107356Y-8818665D01*
X14107555Y-8818660D01*
X14110072Y-8818857D01*
X14114561Y-8819674D01*
X14116984Y-8820377D01*
X14117171Y-8820452D01*
X14121916Y-8821035D01*
X14122624Y-8821142D01*
X14127328Y-8821999D01*
X14127528Y-8821983D01*
X14130052Y-8822034D01*
X14135194Y-8822665D01*
X14137446Y-8823158D01*
X14138169Y-8823388D01*
X14142393Y-8823585D01*
X14143324Y-8823663D01*
X14147521Y-8824179D01*
X14148272Y-8824073D01*
X14150576Y-8823966D01*
X14167269Y-8824744D01*
X14168411Y-8825050D01*
X14173834Y-8825050D01*
X14179252Y-8825303D01*
X14179252Y-8825302D01*
X14179253Y-8825303D01*
X14179973Y-8825242D01*
X14181747Y-8825050D01*
X14437550Y-8825050D01*
X14444254Y-8827019D01*
X14448829Y-8832299D01*
X14449950Y-8837450D01*
X14449950Y-10946899D01*
X14449889Y-10948127D01*
X14448851Y-10958558D01*
X14448364Y-10960973D01*
X14445724Y-10969564D01*
X14445048Y-10971290D01*
X14444101Y-10973263D01*
X14443507Y-10974354D01*
X14442257Y-10976402D01*
X14441222Y-10977852D01*
X14436020Y-10984131D01*
X14434328Y-10985814D01*
X14428490Y-10990594D01*
X14426439Y-10991958D01*
X14418498Y-10996165D01*
X14416799Y-10996908D01*
X14414733Y-10997634D01*
X14413542Y-10997986D01*
X14411212Y-10998549D01*
X14409454Y-10998843D01*
X14398235Y-10999896D01*
X14397076Y-10999950D01*
X12287450Y-10999950D01*
X12280746Y-10997982D01*
X12276171Y-10992701D01*
X12275050Y-10987550D01*
X12275050Y-10763190D01*
X13774950Y-10763190D01*
X13774950Y-10786810D01*
X13778645Y-10810137D01*
X13785943Y-10832600D01*
X13796666Y-10853643D01*
X13810548Y-10872751D01*
X13827249Y-10889452D01*
X13846357Y-10903334D01*
X13856299Y-10908400D01*
X13867400Y-10914057D01*
X13867400Y-10914057D01*
X13867401Y-10914057D01*
X13879441Y-10917969D01*
X13889863Y-10921355D01*
X13913190Y-10925050D01*
X13913191Y-10925050D01*
X13936810Y-10925050D01*
X13960137Y-10921355D01*
X13982599Y-10914057D01*
X14003643Y-10903334D01*
X14022751Y-10889452D01*
X14039452Y-10872751D01*
X14053334Y-10853643D01*
X14064057Y-10832599D01*
X14071355Y-10810137D01*
X14075050Y-10786810D01*
X14075050Y-10763190D01*
X14071355Y-10739863D01*
X14064385Y-10718411D01*
X14064057Y-10717401D01*
X14064057Y-10717401D01*
X14064057Y-10717400D01*
X14053334Y-10696357D01*
X14039452Y-10677249D01*
X14022751Y-10660548D01*
X14003643Y-10646666D01*
X14000716Y-10645174D01*
X13982600Y-10635943D01*
X13960137Y-10628645D01*
X13936810Y-10624950D01*
X13936809Y-10624950D01*
X13913191Y-10624950D01*
X13913190Y-10624950D01*
X13889863Y-10628645D01*
X13867400Y-10635943D01*
X13846357Y-10646666D01*
X13835455Y-10654586D01*
X13827249Y-10660548D01*
X13827249Y-10660549D01*
X13827249Y-10660549D01*
X13810548Y-10677249D01*
X13810548Y-10677249D01*
X13810548Y-10677249D01*
X13805550Y-10684129D01*
X13796666Y-10696357D01*
X13785943Y-10717400D01*
X13778645Y-10739863D01*
X13774950Y-10763190D01*
X12275050Y-10763190D01*
X12275050Y-10730132D01*
X12275346Y-10728705D01*
X12275050Y-10723563D01*
X12275050Y-10718411D01*
X12275002Y-10718231D01*
X12274600Y-10715735D01*
X12273200Y-10691391D01*
X12273459Y-10688493D01*
X12272823Y-10684842D01*
X12272610Y-10681140D01*
X12271983Y-10679241D01*
X12271541Y-10677478D01*
X12271501Y-10677249D01*
X12267039Y-10651638D01*
X12266964Y-10648726D01*
X12265913Y-10645175D01*
X12265791Y-10644472D01*
X12265790Y-10644471D01*
X12265277Y-10641525D01*
X12264435Y-10639708D01*
X12263793Y-10638009D01*
X12256590Y-10613662D01*
X12256331Y-10612789D01*
X12255921Y-10609901D01*
X12254470Y-10606498D01*
X12253420Y-10602950D01*
X12253420Y-10602950D01*
X12252372Y-10601238D01*
X12251540Y-10599625D01*
X12241910Y-10577035D01*
X12241910Y-10577035D01*
X12241483Y-10576034D01*
X12240987Y-10573897D01*
X12238908Y-10569995D01*
X12237175Y-10565929D01*
X12236493Y-10565059D01*
X12235310Y-10563241D01*
X12232744Y-10558427D01*
X12231790Y-10556090D01*
X12231734Y-10555900D01*
X12229244Y-10551814D01*
X12228889Y-10551192D01*
X12226640Y-10546972D01*
X12226640Y-10546972D01*
X12226640Y-10546972D01*
X12226640Y-10546972D01*
X12226504Y-10546826D01*
X12224978Y-10544816D01*
X12222594Y-10540906D01*
X12221506Y-10538628D01*
X12221439Y-10538440D01*
X12221439Y-10538440D01*
X12218718Y-10534506D01*
X12218328Y-10533906D01*
X12215839Y-10529823D01*
X12215838Y-10529823D01*
X12215838Y-10529823D01*
X12215694Y-10529685D01*
X12214054Y-10527767D01*
X12211459Y-10524016D01*
X12210241Y-10521804D01*
X12210163Y-10521620D01*
X12206998Y-10517569D01*
X12204075Y-10513344D01*
X12202954Y-10512393D01*
X12202174Y-10511394D01*
X12202174Y-10511394D01*
X12198983Y-10507310D01*
X12197739Y-10505369D01*
X12197391Y-10504695D01*
X12194545Y-10501572D01*
X12193940Y-10500855D01*
X12192451Y-10498949D01*
X12191337Y-10497524D01*
X12190731Y-10497067D01*
X12189027Y-10495514D01*
X12177457Y-10482813D01*
X12176796Y-10482088D01*
X12175352Y-10479888D01*
X12172377Y-10477237D01*
X12169695Y-10474292D01*
X12168303Y-10473400D01*
X12166747Y-10472219D01*
X12158703Y-10465050D01*
X12147450Y-10455021D01*
X12145584Y-10452788D01*
X12142551Y-10450655D01*
X12142018Y-10450179D01*
X12139784Y-10448188D01*
X12139783Y-10448188D01*
X12137998Y-10447290D01*
X12136439Y-10446356D01*
X12115728Y-10431791D01*
X12115728Y-10431791D01*
X12114983Y-10431267D01*
X12112871Y-10429261D01*
X12109616Y-10427492D01*
X12109031Y-10427081D01*
X12109031Y-10427081D01*
X12106588Y-10425362D01*
X12106587Y-10425362D01*
X12106587Y-10425362D01*
X12106587Y-10425362D01*
X12106586Y-10425362D01*
X12104706Y-10424673D01*
X12103051Y-10423925D01*
X12080740Y-10411802D01*
X12079941Y-10411368D01*
X12077609Y-10409616D01*
X12074177Y-10408236D01*
X12073548Y-10407894D01*
X12073548Y-10407894D01*
X12070926Y-10406469D01*
X12070926Y-10406469D01*
X12070925Y-10406469D01*
X12069411Y-10406105D01*
X12068973Y-10406000D01*
X12067245Y-10405447D01*
X12044462Y-10396284D01*
X12044462Y-10396284D01*
X12043451Y-10395878D01*
X12041590Y-10394717D01*
X12037362Y-10393429D01*
X12033260Y-10391779D01*
X12032163Y-10391646D01*
X12030041Y-10391197D01*
X12024823Y-10389607D01*
X12022496Y-10388630D01*
X12022321Y-10388534D01*
X12019575Y-10387868D01*
X12017673Y-10387407D01*
X12016982Y-10387218D01*
X12012407Y-10385823D01*
X12012406Y-10385823D01*
X12012208Y-10385817D01*
X12009707Y-10385474D01*
X12005256Y-10384395D01*
X12002877Y-10383553D01*
X12002697Y-10383468D01*
X12002697Y-10383468D01*
X11997992Y-10382611D01*
X11997291Y-10382463D01*
X11992644Y-10381335D01*
X11992642Y-10381335D01*
X11992443Y-10381340D01*
X11989927Y-10381143D01*
X11985438Y-10380325D01*
X11983016Y-10379623D01*
X11982829Y-10379548D01*
X11978085Y-10378965D01*
X11977375Y-10378857D01*
X11972672Y-10378001D01*
X11972671Y-10378001D01*
X11972470Y-10378017D01*
X11969948Y-10377966D01*
X11964805Y-10377335D01*
X11962554Y-10376842D01*
X11961830Y-10376612D01*
X11961830Y-10376612D01*
X11957608Y-10376415D01*
X11956675Y-10376336D01*
X11952478Y-10375821D01*
X11951726Y-10375927D01*
X11949424Y-10376034D01*
X11934069Y-10375318D01*
X11934069Y-10375318D01*
X11932730Y-10375256D01*
X11931589Y-10374950D01*
X11926166Y-10374950D01*
X11925878Y-10374937D01*
X11925692Y-10374928D01*
X11920747Y-10374698D01*
X11920027Y-10374758D01*
X11918253Y-10374950D01*
X11856905Y-10374950D01*
X11850201Y-10372982D01*
X11845625Y-10367701D01*
X11844631Y-10360785D01*
X11847533Y-10354430D01*
X11852571Y-10350932D01*
X11856733Y-10349380D01*
X11856733Y-10349380D01*
X11856733Y-10349380D01*
X11868255Y-10340755D01*
X11876880Y-10329233D01*
X11881909Y-10315748D01*
X11882550Y-10309787D01*
X11882550Y-10130213D01*
X11881909Y-10124252D01*
X11876880Y-10110767D01*
X11876879Y-10110767D01*
X11876879Y-10110766D01*
X11868255Y-10099246D01*
X11868254Y-10099245D01*
X11856733Y-10090621D01*
X11856733Y-10090620D01*
X11843248Y-10085591D01*
X11843248Y-10085591D01*
X11837288Y-10084950D01*
X11837288Y-10084950D01*
X11837287Y-10084950D01*
X11837286Y-10084950D01*
X11836231Y-10084950D01*
X11829527Y-10082982D01*
X11827463Y-10081318D01*
X11760441Y-10014296D01*
X11766799Y-10012593D01*
X11778201Y-10006010D01*
X11787510Y-9996701D01*
X11794092Y-9985299D01*
X11795796Y-9978941D01*
X11859027Y-10042172D01*
X11859027Y-10042172D01*
X11862962Y-10036755D01*
X11872609Y-10017822D01*
X11879176Y-9997613D01*
X11879176Y-9997613D01*
X11882500Y-9976625D01*
X11882500Y-9955375D01*
X11879176Y-9934387D01*
X11879176Y-9934387D01*
X11872609Y-9914178D01*
X11862962Y-9895245D01*
X11859027Y-9889828D01*
X11859027Y-9889828D01*
X11795796Y-9953059D01*
X11794092Y-9946701D01*
X11787510Y-9935299D01*
X11778201Y-9925990D01*
X11766799Y-9919408D01*
X11760441Y-9917704D01*
X11823672Y-9854473D01*
X11818255Y-9850537D01*
X11818255Y-9850537D01*
X11817350Y-9850076D01*
X11812271Y-9845279D01*
X11810591Y-9838497D01*
X11812845Y-9831883D01*
X11817351Y-9827979D01*
X11818282Y-9827505D01*
X11826201Y-9821752D01*
X11835479Y-9815011D01*
X11835479Y-9815011D01*
X11835479Y-9815010D01*
X11850510Y-9799979D01*
X11850511Y-9799979D01*
X11850511Y-9799979D01*
X11863005Y-9782782D01*
X11863005Y-9782782D01*
X11863005Y-9782782D01*
X11872656Y-9763841D01*
X11879225Y-9743624D01*
X11882550Y-9722629D01*
X11882550Y-9701371D01*
X11879225Y-9680376D01*
X11872656Y-9660159D01*
X11863005Y-9641218D01*
X11863005Y-9641218D01*
X11863005Y-9641218D01*
X11850511Y-9624021D01*
X11835479Y-9608989D01*
X11818282Y-9596495D01*
X11818211Y-9596459D01*
X11817405Y-9596049D01*
X11812326Y-9591251D01*
X11810646Y-9584469D01*
X11812900Y-9577856D01*
X11817405Y-9573952D01*
X11818282Y-9573505D01*
X11822994Y-9570081D01*
X11830792Y-9564416D01*
X12024570Y-9564416D01*
X12024570Y-9580185D01*
X12027646Y-9595649D01*
X12027646Y-9595651D01*
X12033680Y-9610218D01*
X12033681Y-9610219D01*
X12042441Y-9623329D01*
X12042441Y-9623330D01*
X12053590Y-9634479D01*
X12053591Y-9634479D01*
X12066701Y-9643239D01*
X12066702Y-9643240D01*
X12072295Y-9645557D01*
X12077735Y-9649941D01*
X12079942Y-9656570D01*
X12079950Y-9657013D01*
X12079950Y-9922023D01*
X12077981Y-9928727D01*
X12077860Y-9928913D01*
X12069061Y-9942081D01*
X12069060Y-9942083D01*
X12063026Y-9956650D01*
X12063026Y-9956651D01*
X12059950Y-9972115D01*
X12059950Y-9987885D01*
X12063026Y-10003349D01*
X12063026Y-10003350D01*
X12069060Y-10017917D01*
X12069061Y-10017919D01*
X12077821Y-10031029D01*
X12077821Y-10031029D01*
X12088971Y-10042179D01*
X12088971Y-10042179D01*
X12102081Y-10050939D01*
X12102083Y-10050940D01*
X12116650Y-10056974D01*
X12116650Y-10056974D01*
X12132115Y-10060050D01*
X12132116Y-10060050D01*
X12132116Y-10060050D01*
X12147884Y-10060050D01*
X12147884Y-10060050D01*
X12163350Y-10056974D01*
X12177918Y-10050939D01*
X12191029Y-10042179D01*
X12202179Y-10031029D01*
X12210939Y-10017918D01*
X12210979Y-10017822D01*
X12216973Y-10003350D01*
X12216974Y-10003350D01*
X12220050Y-9987884D01*
X12220050Y-9972116D01*
X12220050Y-9972116D01*
X12220050Y-9972115D01*
X12218833Y-9966000D01*
X12216974Y-9956650D01*
X12212852Y-9946701D01*
X12210940Y-9942083D01*
X12210939Y-9942081D01*
X12202140Y-9928913D01*
X12200052Y-9922245D01*
X12200050Y-9922023D01*
X12200050Y-9616587D01*
X12200050Y-9616585D01*
X12200050Y-9599775D01*
X12200050Y-9599775D01*
X12195958Y-9584502D01*
X12195957Y-9584502D01*
X12188052Y-9570810D01*
X12188052Y-9570809D01*
X12188052Y-9570809D01*
X12188052Y-9570809D01*
X12187557Y-9570165D01*
X12187666Y-9570081D01*
X12184729Y-9564702D01*
X12184683Y-9564485D01*
X12183992Y-9561011D01*
X12181593Y-9548951D01*
X12176728Y-9537205D01*
X12175559Y-9534383D01*
X12175559Y-9534382D01*
X12166799Y-9521272D01*
X12166798Y-9521271D01*
X12155649Y-9510122D01*
X12155649Y-9510121D01*
X12142538Y-9501361D01*
X12142537Y-9501361D01*
X12127970Y-9495327D01*
X12127969Y-9495327D01*
X12112504Y-9492250D01*
X12112504Y-9492250D01*
X12096736Y-9492250D01*
X12096735Y-9492250D01*
X12081271Y-9495327D01*
X12081270Y-9495327D01*
X12066702Y-9501361D01*
X12066701Y-9501361D01*
X12053591Y-9510121D01*
X12053590Y-9510122D01*
X12042441Y-9521271D01*
X12042441Y-9521272D01*
X12033681Y-9534382D01*
X12033680Y-9534383D01*
X12027646Y-9548950D01*
X12027646Y-9548951D01*
X12024570Y-9564416D01*
X11830792Y-9564416D01*
X11835479Y-9561011D01*
X11835479Y-9561011D01*
X11835479Y-9561010D01*
X11850510Y-9545979D01*
X11850511Y-9545979D01*
X11850511Y-9545979D01*
X11863005Y-9528782D01*
X11863005Y-9528782D01*
X11863005Y-9528782D01*
X11872656Y-9509841D01*
X11879225Y-9489624D01*
X11882550Y-9468629D01*
X11882550Y-9447371D01*
X11879225Y-9426376D01*
X11872656Y-9406159D01*
X11863005Y-9387218D01*
X11863005Y-9387218D01*
X11863005Y-9387218D01*
X11850511Y-9370021D01*
X11835479Y-9354989D01*
X11818282Y-9342495D01*
X11799341Y-9332844D01*
X11799341Y-9332844D01*
X11799341Y-9332844D01*
X11779124Y-9326275D01*
X11779124Y-9326275D01*
X11779124Y-9326275D01*
X11761662Y-9323510D01*
X11758129Y-9322950D01*
X11736871Y-9322950D01*
X11733337Y-9323510D01*
X11715876Y-9326275D01*
X11695658Y-9332844D01*
X11676718Y-9342495D01*
X11669738Y-9347566D01*
X11663158Y-9349914D01*
X11656352Y-9348331D01*
X11651483Y-9343321D01*
X11650050Y-9337534D01*
X11650050Y-9308978D01*
X12254950Y-9308978D01*
X12254950Y-9331022D01*
X12258398Y-9352795D01*
X12265210Y-9373760D01*
X12265210Y-9373761D01*
X12275219Y-9393403D01*
X12288175Y-9411236D01*
X12288176Y-9411236D01*
X12303764Y-9426824D01*
X12303764Y-9426825D01*
X12314973Y-9434968D01*
X12319239Y-9440501D01*
X12319837Y-9447463D01*
X12316577Y-9453642D01*
X12314973Y-9455032D01*
X12303764Y-9463175D01*
X12303764Y-9463176D01*
X12288176Y-9478764D01*
X12288175Y-9478764D01*
X12275219Y-9496597D01*
X12265210Y-9516239D01*
X12265210Y-9516240D01*
X12258398Y-9537205D01*
X12258398Y-9537205D01*
X12254950Y-9558978D01*
X12254950Y-9581022D01*
X12255501Y-9584502D01*
X12258398Y-9602795D01*
X12265210Y-9623760D01*
X12265210Y-9623761D01*
X12270672Y-9634479D01*
X12275135Y-9643239D01*
X12275219Y-9643403D01*
X12288175Y-9661236D01*
X12288176Y-9661236D01*
X12290279Y-9663340D01*
X12293628Y-9669472D01*
X12293129Y-9676442D01*
X12288942Y-9682035D01*
X12285845Y-9683726D01*
X12280767Y-9685620D01*
X12280766Y-9685621D01*
X12269245Y-9694245D01*
X12269245Y-9694246D01*
X12260621Y-9705766D01*
X12260620Y-9705767D01*
X12255591Y-9719252D01*
X12255228Y-9722629D01*
X12254950Y-9725212D01*
X12254950Y-9725214D01*
X12254950Y-9914787D01*
X12254950Y-9914788D01*
X12255591Y-9920748D01*
X12260620Y-9934233D01*
X12260621Y-9934234D01*
X12269245Y-9945754D01*
X12269245Y-9945755D01*
X12280766Y-9954379D01*
X12280767Y-9954380D01*
X12294252Y-9959409D01*
X12294252Y-9959409D01*
X12294944Y-9959484D01*
X12300213Y-9960050D01*
X12489787Y-9960050D01*
X12495748Y-9959409D01*
X12509233Y-9954380D01*
X12520755Y-9945755D01*
X12529380Y-9934233D01*
X12531364Y-9928913D01*
X12531489Y-9928578D01*
X12844950Y-9928578D01*
X12844950Y-10091421D01*
X12844950Y-10091422D01*
X12845990Y-10104641D01*
X12845990Y-10104642D01*
X12851490Y-10126468D01*
X12851490Y-10126468D01*
X12860799Y-10146962D01*
X12860800Y-10146963D01*
X12873617Y-10165465D01*
X12873618Y-10165465D01*
X12873618Y-10165465D01*
X12889535Y-10181382D01*
X12889535Y-10181382D01*
X12889535Y-10181383D01*
X12903460Y-10191030D01*
X12908037Y-10194201D01*
X12928532Y-10203510D01*
X12928532Y-10203510D01*
X12950358Y-10209009D01*
X12950358Y-10209009D01*
X12950359Y-10209010D01*
X12963578Y-10210050D01*
X13226422Y-10210050D01*
X13239641Y-10209010D01*
X13261468Y-10203510D01*
X13281963Y-10194201D01*
X13300465Y-10181382D01*
X13316382Y-10165465D01*
X13329201Y-10146963D01*
X13338510Y-10126468D01*
X13344010Y-10104641D01*
X13345050Y-10091422D01*
X13345050Y-9928578D01*
X13344010Y-9915359D01*
X13343866Y-9914788D01*
X13338510Y-9893532D01*
X13338510Y-9893532D01*
X13329201Y-9873038D01*
X13329201Y-9873037D01*
X13316382Y-9854535D01*
X13300465Y-9838618D01*
X13300465Y-9838618D01*
X13300464Y-9838617D01*
X13281963Y-9825800D01*
X13281963Y-9825800D01*
X13281963Y-9825799D01*
X13261468Y-9816490D01*
X13261468Y-9816490D01*
X13261468Y-9816490D01*
X13239642Y-9810991D01*
X13239641Y-9810990D01*
X13235235Y-9810644D01*
X13226422Y-9809950D01*
X13226421Y-9809950D01*
X12963579Y-9809950D01*
X12963578Y-9809950D01*
X12950359Y-9810990D01*
X12950358Y-9810991D01*
X12928532Y-9816490D01*
X12928532Y-9816490D01*
X12908038Y-9825799D01*
X12908037Y-9825800D01*
X12889535Y-9838617D01*
X12889534Y-9838618D01*
X12873618Y-9854534D01*
X12873617Y-9854535D01*
X12860800Y-9873037D01*
X12860799Y-9873038D01*
X12851490Y-9893532D01*
X12851490Y-9893532D01*
X12845990Y-9915358D01*
X12845990Y-9915359D01*
X12844950Y-9928578D01*
X12531489Y-9928578D01*
X12533196Y-9924002D01*
X12533196Y-9924001D01*
X12534409Y-9920749D01*
X12534409Y-9920748D01*
X12535050Y-9914787D01*
X12535050Y-9725213D01*
X12534409Y-9719252D01*
X12529380Y-9705767D01*
X12529379Y-9705767D01*
X12529379Y-9705766D01*
X12520755Y-9694246D01*
X12520754Y-9694245D01*
X12509233Y-9685621D01*
X12509233Y-9685620D01*
X12504155Y-9683726D01*
X12498562Y-9679539D01*
X12496120Y-9672993D01*
X12497605Y-9666166D01*
X12499721Y-9663340D01*
X12501824Y-9661237D01*
X12514781Y-9643402D01*
X12524789Y-9623761D01*
X12531601Y-9602795D01*
X12535050Y-9581022D01*
X12535050Y-9558978D01*
X12531601Y-9537205D01*
X12524789Y-9516239D01*
X12524789Y-9516239D01*
X12517209Y-9501361D01*
X12514781Y-9496598D01*
X12513126Y-9494319D01*
X12501825Y-9478764D01*
X12501824Y-9478764D01*
X12486236Y-9463176D01*
X12486236Y-9463175D01*
X12475027Y-9455032D01*
X12470761Y-9449499D01*
X12470163Y-9442538D01*
X12473423Y-9436358D01*
X12475026Y-9434969D01*
X12486236Y-9426824D01*
X12501824Y-9411237D01*
X12514781Y-9393402D01*
X12524789Y-9373761D01*
X12531601Y-9352795D01*
X12535050Y-9331022D01*
X12535050Y-9308978D01*
X12531601Y-9287205D01*
X12525024Y-9266963D01*
X12524790Y-9266240D01*
X12524789Y-9266239D01*
X12521324Y-9259438D01*
X12514781Y-9246598D01*
X12513126Y-9244319D01*
X12501825Y-9228764D01*
X12501824Y-9228764D01*
X12486236Y-9213176D01*
X12486236Y-9213175D01*
X12468402Y-9200219D01*
X12468402Y-9200219D01*
X12468402Y-9200219D01*
X12462110Y-9197012D01*
X12448761Y-9190210D01*
X12448760Y-9190210D01*
X12427795Y-9183399D01*
X12416909Y-9181674D01*
X12406022Y-9179950D01*
X12383978Y-9179950D01*
X12376720Y-9181100D01*
X12362205Y-9183399D01*
X12341240Y-9190210D01*
X12341239Y-9190210D01*
X12321597Y-9200219D01*
X12303764Y-9213175D01*
X12303764Y-9213176D01*
X12288176Y-9228764D01*
X12288175Y-9228764D01*
X12275219Y-9246597D01*
X12265210Y-9266239D01*
X12265210Y-9266240D01*
X12258398Y-9287205D01*
X12254950Y-9308978D01*
X11650050Y-9308978D01*
X11650050Y-9048578D01*
X12844950Y-9048578D01*
X12844950Y-9211421D01*
X12844950Y-9211422D01*
X12845990Y-9224641D01*
X12845990Y-9224642D01*
X12851490Y-9246468D01*
X12851490Y-9246468D01*
X12860799Y-9266962D01*
X12860800Y-9266963D01*
X12873617Y-9285465D01*
X12873618Y-9285465D01*
X12873618Y-9285465D01*
X12889535Y-9301382D01*
X12889535Y-9301382D01*
X12889535Y-9301383D01*
X12900499Y-9308978D01*
X12908037Y-9314201D01*
X12928532Y-9323510D01*
X12928532Y-9323510D01*
X12950358Y-9329009D01*
X12950358Y-9329009D01*
X12950359Y-9329010D01*
X12963578Y-9330050D01*
X13226422Y-9330050D01*
X13239641Y-9329010D01*
X13261468Y-9323510D01*
X13281963Y-9314201D01*
X13300465Y-9301382D01*
X13316382Y-9285465D01*
X13329201Y-9266963D01*
X13338510Y-9246468D01*
X13344010Y-9224641D01*
X13345050Y-9211422D01*
X13345050Y-9152442D01*
X13347018Y-9145738D01*
X13352299Y-9141163D01*
X13359215Y-9140169D01*
X13362195Y-9140986D01*
X13376650Y-9146974D01*
X13392115Y-9150050D01*
X13392116Y-9150050D01*
X13392116Y-9150050D01*
X13407884Y-9150050D01*
X13407884Y-9150050D01*
X13423350Y-9146974D01*
X13437918Y-9140939D01*
X13451029Y-9132179D01*
X13462179Y-9121029D01*
X13470939Y-9107918D01*
X13476974Y-9093350D01*
X13480050Y-9077884D01*
X13480050Y-9062116D01*
X13480050Y-9062116D01*
X13480050Y-9062115D01*
X13476974Y-9046651D01*
X13476974Y-9046650D01*
X13476973Y-9046650D01*
X13470940Y-9032083D01*
X13470939Y-9032081D01*
X13462140Y-9018913D01*
X13460052Y-9012245D01*
X13460050Y-9012023D01*
X13460050Y-8878906D01*
X13460050Y-8878905D01*
X13460050Y-8862095D01*
X13460050Y-8862094D01*
X13455958Y-8846822D01*
X13453064Y-8841810D01*
X13448052Y-8833128D01*
X13436872Y-8821948D01*
X13436871Y-8821948D01*
X13436438Y-8821515D01*
X13436437Y-8821514D01*
X13263457Y-8648534D01*
X13260109Y-8642402D01*
X13260064Y-8642185D01*
X13258259Y-8633115D01*
X13256974Y-8626650D01*
X13255447Y-8622965D01*
X13250940Y-8612083D01*
X13250939Y-8612081D01*
X13242179Y-8598971D01*
X13242179Y-8598971D01*
X13231029Y-8587821D01*
X13231029Y-8587821D01*
X13221156Y-8581224D01*
X13216676Y-8575863D01*
X13215805Y-8568931D01*
X13217800Y-8563929D01*
X13218455Y-8562969D01*
X13221552Y-8559872D01*
X13226765Y-8550843D01*
X13229458Y-8546179D01*
X13233550Y-8530906D01*
X13233550Y-8515094D01*
X13233550Y-8507977D01*
X13235518Y-8501273D01*
X13235640Y-8501087D01*
X13244439Y-8487919D01*
X13244439Y-8487918D01*
X13244439Y-8487918D01*
X13250474Y-8473350D01*
X13253550Y-8457884D01*
X13253550Y-8442116D01*
X13253550Y-8442116D01*
X13253550Y-8442115D01*
X13250474Y-8426651D01*
X13250474Y-8426650D01*
X13250473Y-8426650D01*
X13244440Y-8412083D01*
X13244439Y-8412081D01*
X13235679Y-8398971D01*
X13235679Y-8398971D01*
X13224529Y-8387821D01*
X13224529Y-8387821D01*
X13211418Y-8379061D01*
X13211417Y-8379060D01*
X13196850Y-8373026D01*
X13196849Y-8373026D01*
X13181384Y-8369950D01*
X13181384Y-8369950D01*
X13165616Y-8369950D01*
X13165615Y-8369950D01*
X13150151Y-8373026D01*
X13150150Y-8373026D01*
X13135583Y-8379060D01*
X13135581Y-8379061D01*
X13122471Y-8387821D01*
X13122471Y-8387821D01*
X13111321Y-8398971D01*
X13111321Y-8398971D01*
X13102561Y-8412081D01*
X13102560Y-8412083D01*
X13096526Y-8426650D01*
X13096526Y-8426651D01*
X13093450Y-8442115D01*
X13093450Y-8457885D01*
X13096526Y-8473349D01*
X13096526Y-8473350D01*
X13102560Y-8487917D01*
X13102560Y-8487917D01*
X13102561Y-8487918D01*
X13105357Y-8492104D01*
X13107445Y-8498771D01*
X13105597Y-8505509D01*
X13103815Y-8507761D01*
X13045034Y-8566543D01*
X13038902Y-8569891D01*
X13038685Y-8569936D01*
X13023151Y-8573026D01*
X13023150Y-8573026D01*
X13008583Y-8579060D01*
X13008581Y-8579061D01*
X12995471Y-8587821D01*
X12995471Y-8587821D01*
X12984321Y-8598971D01*
X12984321Y-8598971D01*
X12975561Y-8612081D01*
X12975560Y-8612083D01*
X12969526Y-8626650D01*
X12969526Y-8626651D01*
X12966450Y-8642115D01*
X12966450Y-8657885D01*
X12969526Y-8673349D01*
X12969526Y-8673350D01*
X12975560Y-8687917D01*
X12975561Y-8687919D01*
X12984321Y-8701029D01*
X12984321Y-8701029D01*
X12995471Y-8712179D01*
X12995471Y-8712179D01*
X13008581Y-8720939D01*
X13008583Y-8720940D01*
X13023150Y-8726974D01*
X13023150Y-8726974D01*
X13038615Y-8730050D01*
X13038616Y-8730050D01*
X13038616Y-8730050D01*
X13054384Y-8730050D01*
X13054384Y-8730050D01*
X13069850Y-8726974D01*
X13084418Y-8720939D01*
X13097529Y-8712179D01*
X13097625Y-8712083D01*
X13104482Y-8705226D01*
X13110614Y-8701878D01*
X13117583Y-8702376D01*
X13122018Y-8705226D01*
X13128971Y-8712179D01*
X13128971Y-8712179D01*
X13142081Y-8720939D01*
X13142083Y-8720940D01*
X13156650Y-8726974D01*
X13156650Y-8726974D01*
X13163115Y-8728260D01*
X13172185Y-8730064D01*
X13178376Y-8733302D01*
X13178534Y-8733457D01*
X13336318Y-8891242D01*
X13339667Y-8897374D01*
X13339950Y-8900010D01*
X13339950Y-8968881D01*
X13337981Y-8975585D01*
X13332701Y-8980160D01*
X13325785Y-8981154D01*
X13319430Y-8978252D01*
X13317357Y-8975942D01*
X13316382Y-8974535D01*
X13316381Y-8974534D01*
X13300466Y-8958618D01*
X13300465Y-8958618D01*
X13300465Y-8958618D01*
X13300464Y-8958617D01*
X13281963Y-8945800D01*
X13281963Y-8945800D01*
X13281963Y-8945799D01*
X13261468Y-8936490D01*
X13261468Y-8936490D01*
X13261468Y-8936490D01*
X13239642Y-8930991D01*
X13239641Y-8930990D01*
X13235235Y-8930644D01*
X13226422Y-8929950D01*
X13226421Y-8929950D01*
X12963579Y-8929950D01*
X12963578Y-8929950D01*
X12950359Y-8930990D01*
X12950358Y-8930991D01*
X12928532Y-8936490D01*
X12928532Y-8936490D01*
X12908038Y-8945799D01*
X12908037Y-8945800D01*
X12889535Y-8958617D01*
X12889534Y-8958618D01*
X12873618Y-8974534D01*
X12873617Y-8974535D01*
X12860800Y-8993037D01*
X12860799Y-8993038D01*
X12851490Y-9013532D01*
X12851490Y-9013532D01*
X12845990Y-9035358D01*
X12845990Y-9035359D01*
X12844950Y-9048578D01*
X11650050Y-9048578D01*
X11650050Y-8413190D01*
X12024950Y-8413190D01*
X12024950Y-8436810D01*
X12028645Y-8460137D01*
X12035943Y-8482600D01*
X12044183Y-8498771D01*
X12046666Y-8503643D01*
X12060548Y-8522751D01*
X12077249Y-8539452D01*
X12096357Y-8553334D01*
X12106299Y-8558400D01*
X12117400Y-8564057D01*
X12117400Y-8564057D01*
X12117401Y-8564057D01*
X12125051Y-8566543D01*
X12139863Y-8571355D01*
X12163190Y-8575050D01*
X12163191Y-8575050D01*
X12186810Y-8575050D01*
X12210137Y-8571355D01*
X12232599Y-8564057D01*
X12253643Y-8553334D01*
X12272751Y-8539452D01*
X12289452Y-8522751D01*
X12303334Y-8503643D01*
X12314057Y-8482599D01*
X12321355Y-8460137D01*
X12321712Y-8457884D01*
X12325050Y-8436810D01*
X12325050Y-8413190D01*
X12321355Y-8389863D01*
X12314057Y-8367400D01*
X12303334Y-8346357D01*
X12289452Y-8327249D01*
X12272751Y-8310548D01*
X12253643Y-8296666D01*
X12232600Y-8285943D01*
X12210137Y-8278645D01*
X12186810Y-8274950D01*
X12186809Y-8274950D01*
X12163191Y-8274950D01*
X12163190Y-8274950D01*
X12139863Y-8278645D01*
X12117400Y-8285943D01*
X12096357Y-8296666D01*
X12085455Y-8304586D01*
X12077249Y-8310548D01*
X12077249Y-8310548D01*
X12077249Y-8310548D01*
X12060548Y-8327249D01*
X12060548Y-8327249D01*
X12060548Y-8327249D01*
X12054586Y-8335455D01*
X12046666Y-8346357D01*
X12035943Y-8367400D01*
X12028645Y-8389863D01*
X12024950Y-8413190D01*
X11650050Y-8413190D01*
X11650050Y-8253101D01*
X11650111Y-8251873D01*
X11651149Y-8241441D01*
X11651636Y-8239026D01*
X11654276Y-8230437D01*
X11654951Y-8228711D01*
X11655900Y-8226734D01*
X11656492Y-8225646D01*
X11657743Y-8223597D01*
X11658777Y-8222148D01*
X11660265Y-8220352D01*
X11663980Y-8215868D01*
X11665671Y-8214187D01*
X11671510Y-8209404D01*
X11673560Y-8208042D01*
X11681502Y-8203834D01*
X11683200Y-8203092D01*
X11685267Y-8202366D01*
X11686456Y-8202015D01*
X11688789Y-8201450D01*
X11690544Y-8201157D01*
X11700988Y-8200177D01*
X11701765Y-8200104D01*
X11702924Y-8200050D01*
X13812550Y-8200050D01*
X13819254Y-8202018D01*
G37*
%TD.AperFunction*%
%TD*%
M02*
