<?xml version="1.0"?>
<!DOCTYPE svg PUBLIC "-//W3C//DTD SVG 1.1//EN" "http://www.w3.org/Graphics/SVG/1.1/DTD/svg11.dtd">
<svg width="29.58mm" height="29.58mm" viewBox="0 0 29.58 29.58" xmlns="http://www.w3.org/2000/svg" version="1.1">
<g id="Sketch002" transform="translate(14.790000,14.790000) scale(1,-1)">
<path id="Sketch002_w0000"  d="M 7.5000000000000115 -11.75 A 1.25 1.25 0 0 1 10 -11.75A 1.25 1.25 0 0 1 7.5 -11.75" stroke="#000000" stroke-width="0.7 px" style="stroke-width:0.7;stroke-miterlimit:4;stroke-dasharray:none;stroke-linecap:square;fill:none;fill-opacity:1;fill-rule: evenodd"/>
<path id="Sketch002_w0001"  d="M -10.0 11.75 A 1.25 1.25 0 0 1 -7.5 11.75A 1.25 1.25 0 0 1 -10 11.75" stroke="#000000" stroke-width="0.7 px" style="stroke-width:0.7;stroke-miterlimit:4;stroke-dasharray:none;stroke-linecap:square;fill:none;fill-opacity:1;fill-rule: evenodd"/>
<path id="Sketch002_w0002"  d="M 11.25 8.25 L 14.5 8.249999999999998 L 14.5 -13.5 A 1 1 0 0 0 13.5 -14.5L -8.25 -14.5 L -8.25 -11.25 A 3 3 0 0 1 -11.25 -8.25L -14.5 -8.25 L -14.5 13.5 A 1 1 0 0 0 -13.5 14.5L 8.25 14.5 L 8.25 11.25 A 3 3 0 0 1 11.25 8.25" stroke="#000000" stroke-width="0.7 px" style="stroke-width:0.7;stroke-miterlimit:4;stroke-dasharray:none;stroke-linecap:square;fill:none;fill-opacity:1;fill-rule: evenodd"/>
<title>b'Sketch_converted001_'</title>
</g>
</svg>